<svg width="512" height="512" viewBox="0 0 512 512" fill="none" xmlns="http://www.w3.org/2000/svg">
<path d="M471.28 120.129L386 196.769V313.089L471.12 391.488C477.6 397.504 487.728 397.121 493.728 390.641C496.464 387.697 497.984 383.825 498 379.809V132.129C498.064 123.297 490.96 116.081 482.128 116.001C478.128 115.969 474.256 117.441 471.28 120.129Z" fill="#F2FDFF"/>
<path fill-rule="evenodd" clip-rule="evenodd" d="M386 160C386 124.656 357.344 96 322 96H202H82C46.656 96 18 124.656 18 160V352C18 387.344 46.656 416 82 416H202H322C357.344 416 386 387.344 386 352V160ZM122 255.5C122 211.669 157.893 176 202 176C246.107 176 282 211.669 282 255.5C282 299.331 246.107 335 202 335C157.893 335 122 299.331 122 255.5Z" fill="#FAFEFF"/>
<path fill-rule="evenodd" clip-rule="evenodd" d="M322 96C357.344 96 386 124.656 386 160V352C386 387.344 357.344 416 322 416H202V335C246.107 335 282 299.331 282 255.5C282 211.669 246.107 176 202 176V96H322Z" fill="#F2FDFF"/>
</svg>
