<svg width="978" height="978" viewBox="0 0 978 978" fill="none" xmlns="http://www.w3.org/2000/svg">
<path fill-rule="evenodd" clip-rule="evenodd" d="M149.19 228.349H309.698V203.934C309.698 173.415 334.079 149 364.556 149H489H613.445C643.921 149 668.302 173.415 668.302 203.934V228.349H828.81C870.46 228.349 905 262.937 905 304.646V719.703C905 761.412 870.46 796 828.81 796H489H149.19C107.54 796 73 761.412 73 719.703V304.646C73 261.92 107.54 228.349 149.19 228.349ZM768 352V310H833V352H768ZM335 500.5C335 415.869 404.094 347 489 347C573.906 347 643 415.869 643 500.5C643 585.131 573.906 654 489 654C404.094 654 335 585.131 335 500.5Z" fill="url(#paint0_linear)"/>
<defs>
<linearGradient id="paint0_linear" x1="906.016" y1="484.708" x2="72.9999" y2="489.78" gradientUnits="userSpaceOnUse">
<stop offset="0.493878" stop-color="#F2FDFF"/>
<stop offset="0.509435" stop-color="#FAFEFF"/>
</linearGradient>
</defs>
</svg>
